<svg width="66" height="52" viewBox="0 0 66 52" fill="none" xmlns="http://www.w3.org/2000/svg">
<path d="M10.2492 6.35922C10.6291 5.92023 11.181 5.66797 11.7616 5.66797H43.3337C44.4383 5.66797 45.3337 6.5634 45.3337 7.66797V15.2236C45.3337 16.3282 44.4383 17.2236 43.3337 17.2236H5.22307C3.50991 17.2236 2.58968 15.2103 3.71072 13.9149L10.2492 6.35922Z" fill="url(#paint0_linear_8_193)"/>
<path d="M65.0144 17.2246H57.7322" stroke="black" stroke-width="1.5"/>
<path d="M7.84741 16.5508H0.565186" stroke="black" stroke-width="1.5"/>
<path d="M14.4119 45.7805C14.3543 47.3379 13.5817 50.5217 10.9524 50.7981C8.32315 51.0745 5.35948 50.9133 4.2063 50.7981V24.8512L13.201 6.34307C14.0083 4.55554 16.5222 0.980469 20.1201 0.980469C23.718 0.980469 37.9944 0.980469 44.6828 0.980469C46.4126 1.26875 50.3218 2.74487 52.1208 6.34307C53.9197 9.94127 58.8669 20.1811 61.1156 24.8512V50.7981C58.549 51.2448 53.2739 51.6764 52.7057 49.8296C52.1374 47.9828 52.1138 46.3607 52.173 45.7805" stroke="black" stroke-width="1.5"/>
<path d="M56.1878 39.6504C53.2404 40.4637 42.9361 41.8437 32.4687 41.8437C19.6623 41.8437 13.0454 42.0895 10.4539 39.6504" stroke="black" stroke-width="1.5"/>
<path d="M46.4254 33.1836C45.9736 30.6581 46.9679 25.7825 54.5596 26.4844" stroke="black" stroke-width="1.5"/>
<path d="M17.9443 33.1836C18.3961 30.6581 17.4017 25.7825 9.81 26.4844" stroke="black" stroke-width="1.5"/>
<path d="M41.7652 33.5078L43.7488 27.5879H21.9275L23.639 33.5078H41.7652Z" stroke="black" stroke-width="1.5"/>
<defs>
<linearGradient id="paint0_linear_8_193" x1="25.0906" y1="5.66797" x2="25.0906" y2="17.2236" gradientUnits="userSpaceOnUse">
<stop stop-color="#FFA543"/>
<stop offset="1" stop-color="#FFCC83"/>
</linearGradient>
</defs>
</svg>
