<svg width="40" height="41" viewBox="0 0 40 41" fill="none" xmlns="http://www.w3.org/2000/svg">
<rect x="0.500244" y="1.1543" width="39" height="39" rx="19.5" stroke="#8E8E8E"/>
<path d="M20.8342 23.9902C22.2149 23.9902 23.3342 22.8709 23.3342 21.4902C23.3342 20.1095 22.2149 18.9902 20.8342 18.9902C19.4535 18.9902 18.3342 20.1095 18.3342 21.4902C18.3342 22.8709 19.4535 23.9902 20.8342 23.9902Z" fill="#8E8E8E"/>
<path d="M20.8342 15.6543C22.2149 15.6543 23.3342 14.535 23.3342 13.1543C23.3342 11.7736 22.2149 10.6543 20.8342 10.6543C19.4535 10.6543 18.3342 11.7736 18.3342 13.1543C18.3342 14.535 19.4535 15.6543 20.8342 15.6543Z" fill="#8E8E8E"/>
<path d="M20.8342 32.3184C22.2149 32.3184 23.3342 31.1991 23.3342 29.8184C23.3342 28.4376 22.2149 27.3184 20.8342 27.3184C19.4535 27.3184 18.3342 28.4376 18.3342 29.8184C18.3342 31.1991 19.4535 32.3184 20.8342 32.3184Z" fill="#8E8E8E"/>
</svg>
