<svg width="40" height="40" viewBox="0 0 40 40" fill="none" xmlns="http://www.w3.org/2000/svg">
<path d="M36.6668 18.4671V20.0004C36.6648 23.5945 35.501 27.0916 33.3491 29.9701C31.1971 32.8487 28.1723 34.9546 24.7258 35.9736C21.2792 36.9926 17.5956 36.8703 14.2243 35.6247C10.853 34.3792 7.97459 32.0773 6.01843 29.0622C4.06227 26.0472 3.13315 22.4805 3.36962 18.8943C3.6061 15.308 4.99551 11.8943 7.33063 9.16221C9.66575 6.43012 12.8215 4.52606 16.3271 3.734C19.8328 2.94194 23.5006 3.30432 26.7835 4.76709" stroke="#262729" stroke-linejoin="round"/>
<circle cx="21.1842" cy="21.1841" r="7.1101" fill="url(#paint0_linear_257_572)"/>
<path d="M36.6667 6.66797L20 23.3513L15 18.3513" stroke="#262729" stroke-linejoin="round"/>
<defs>
<linearGradient id="paint0_linear_257_572" x1="21.1842" y1="14.074" x2="21.1842" y2="28.2942" gradientUnits="userSpaceOnUse">
<stop stop-color="#FFA543"/>
<stop offset="1" stop-color="#FFCC83"/>
</linearGradient>
</defs>
</svg>
