<svg width="21" height="20" viewBox="0 0 21 20" fill="none" xmlns="http://www.w3.org/2000/svg">
<path d="M13.834 0.833252H7.16732C6.01732 0.833252 5.08398 1.76659 5.08398 2.91658V17.0833C5.08398 18.2332 6.01732 19.1666 7.16732 19.1666H13.834C14.984 19.1666 15.9173 18.2332 15.9173 17.0833V2.91658C15.9173 1.76659 14.984 0.833252 13.834 0.833252ZM10.5007 18.3333C9.80898 18.3333 9.25065 17.7749 9.25065 17.0833C9.25065 16.3916 9.80898 15.8333 10.5007 15.8333C11.1923 15.8333 11.7507 16.3916 11.7507 17.0833C11.7507 17.7749 11.1923 18.3333 10.5007 18.3333ZM14.2507 14.9999H6.75065V3.33325H14.2507V14.9999Z" fill="black"/>
<path d="M18.8375 16.4083C18.325 16.4083 17.8292 16.325 17.3667 16.175C17.2208 16.125 17.0583 16.1625 16.9458 16.275L16.2917 17.0958C15.1125 16.5333 14.0083 15.4708 13.4208 14.25L14.2333 13.5583C14.3458 13.4417 14.3792 13.2792 14.3333 13.1333C14.1792 12.6708 14.1 12.175 14.1 11.6625C14.1 11.4375 13.9125 11.25 13.6875 11.25H12.2458C12.0208 11.25 11.75 11.35 11.75 11.6625C11.75 15.5333 14.9708 18.75 18.8375 18.75C19.1333 18.75 19.25 18.4875 19.25 18.2583V16.8208C19.25 16.5958 19.0625 16.4083 18.8375 16.4083Z" fill="#434343"/>
</svg>
