<svg width="30" height="30" viewBox="0 0 30 30" fill="none" xmlns="http://www.w3.org/2000/svg">
<circle cx="19.4742" cy="16.6492" r="6.32542" fill="url(#paint0_linear_533_1457)"/>
<path d="M9.09317 11.419L10.1833 10.6108C11.0924 9.93686 11.2052 8.61088 10.4983 7.72722C9.84713 6.91319 9.12589 5.92156 8.50449 4.87672C7.93086 3.91223 6.68549 3.48622 5.7088 4.03882L5.10623 4.37975C4.28846 4.84243 3.51428 5.45049 3.24427 6.35044C2.64324 8.35372 2.90844 11.926 6.86745 16.4027C9.00159 19.3424 10.384 20.7754 13.1575 22.9831C14.9394 24.549 18.9721 27.107 22.7816 26.8325C24.2428 26.7272 25.3836 25.6579 26.1671 24.4199L26.2077 24.3559C26.8241 23.382 26.4233 22.0839 25.4085 21.5374C24.4859 21.0405 23.4757 20.4298 22.6174 19.772C21.7011 19.0698 20.3021 18.9816 19.4848 19.7969L18.4864 20.7928C16.7606 20.3089 12.7263 18.3248 10.249 13.8734" stroke="black" stroke-linecap="round"/>
<defs>
<linearGradient id="paint0_linear_533_1457" x1="19.4742" y1="10.3237" x2="19.4742" y2="22.9746" gradientUnits="userSpaceOnUse">
<stop stop-color="#FFA543"/>
<stop offset="1" stop-color="#FFCC83"/>
</linearGradient>
</defs>
</svg>
